# WaveFront *.obj file (generated by Autodesk ATF)

mtllib Marker.mtl

g Solid1

v -0.500000 0.000000 0.000000
v -0.433013 -0.250000 0.000000
v -0.433013 0.000000 -0.250000
v -0.433013 0.000000 0.250000
v -0.433013 0.250000 0.000000
v -0.380563 -0.324302 0.000000
v -0.375000 -0.216506 -0.250000
v -0.375000 -0.216506 0.250000
v -0.375000 0.216506 -0.250000
v -0.375000 0.216506 0.250000
v -0.346012 -0.260338 -0.250000
v -0.320150 -0.324302 -0.205748
v -0.320150 -0.324302 0.205748
v -0.250000 0.000000 -0.433013
v -0.250000 0.000000 0.433013
v -0.250000 0.433013 0.000000
v -0.216506 -0.125000 -0.433013
v -0.216506 -0.125000 0.433013
v -0.216506 0.125000 -0.433013
v -0.216506 0.125000 0.433013
v -0.216506 0.375000 -0.250000
v -0.216506 0.375000 0.250000
v -0.208522 -0.137907 -0.433013
v -0.158091 -0.324302 -0.346172
v -0.158091 -0.324302 0.346172
v -0.127949 -0.731000 0.006489
v -0.126636 -0.731000 -0.019400
v -0.125000 -0.216506 -0.433013
v -0.125000 -0.216506 0.433013
v -0.125000 0.216506 -0.433013
v -0.125000 0.216506 0.433013
v -0.124023 -0.731000 0.032112
v -0.120138 -0.731000 -0.044494
v -0.115021 -0.731000 0.056420
v -0.108723 -0.731000 -0.067767
v -0.101309 -0.731000 0.078419
v -0.092856 -0.731000 -0.088266
v -0.083449 -0.731000 0.097207
v -0.073187 -0.731000 -0.105151
v -0.062174 -0.731000 0.112015
v -0.050522 -0.731000 -0.117731
v -0.038352 -0.731000 0.122238
v -0.025789 -0.731000 -0.125491
v -0.012961 -0.731000 0.127456
v 0.000000 -1.195363 0.000000
v 0.000000 -0.731000 -0.128113
v 0.000000 -0.250000 -0.433013
v 0.000000 -0.250000 0.433013
v 0.000000 0.000000 -0.500000
v 0.000000 0.000000 0.500000
v 0.000000 0.250000 -0.433013
v 0.000000 0.250000 0.433013
v 0.000000 0.433013 -0.250000
v 0.000000 0.433013 0.250000
v 0.000000 0.500000 0.000000
v 0.012961 -0.731000 0.127456
v 0.025789 -0.731000 -0.125491
v 0.038352 -0.731000 0.122238
v 0.050522 -0.731000 -0.117731
v 0.054160 -0.324302 -0.376689
v 0.054160 -0.324302 0.376689
v 0.062174 -0.731000 0.112015
v 0.073187 -0.731000 -0.105151
v 0.083449 -0.731000 0.097207
v 0.092856 -0.731000 -0.088266
v 0.101309 -0.731000 0.078419
v 0.108723 -0.731000 -0.067767
v 0.115021 -0.731000 0.056420
v 0.120138 -0.731000 -0.044494
v 0.124023 -0.731000 0.032112
v 0.125000 -0.216506 -0.433013
v 0.125000 -0.216506 0.433013
v 0.125000 0.216506 -0.433013
v 0.125000 0.216506 0.433013
v 0.126636 -0.731000 -0.019400
v 0.127949 -0.731000 0.006489
v 0.216506 -0.125000 -0.433013
v 0.216506 -0.125000 0.433013
v 0.216506 0.125000 -0.433013
v 0.216506 0.125000 0.433013
v 0.216506 0.375000 -0.250000
v 0.216506 0.375000 0.250000
v 0.249216 -0.324302 -0.287610
v 0.249216 -0.324302 0.287610
v 0.250000 0.000000 -0.433013
v 0.250000 0.000000 0.433013
v 0.250000 0.433013 0.000000
v 0.365147 -0.324302 -0.107217
v 0.365147 -0.324302 0.107217
v 0.375000 -0.216506 -0.250000
v 0.375000 -0.216506 0.250000
v 0.375000 0.216506 -0.250000
v 0.375000 0.216506 0.250000
v 0.433013 -0.250000 0.000000
v 0.433013 0.000000 -0.250000
v 0.433013 0.000000 0.250000
v 0.433013 0.250000 0.000000
v 0.500000 0.000000 0.000000
vt 10.443771 -0.508700 0.000000
vt 10.443771 -0.693681 0.000000
vt 10.443771 1.156135 0.000000
vt 10.443771 0.971154 0.000000
vt 10.443771 0.786172 0.000000
vt 10.443771 0.601190 0.000000
vt 10.443771 0.416209 0.000000
vt 10.443771 0.231227 0.000000
vt 10.443771 0.046245 0.000000
vt 10.443771 -0.138736 0.000000
vt 10.443771 -0.323718 0.000000
vt 12.891517 -1.017399 0.000000
vt 12.891517 -0.339133 0.000000
vt 12.891517 0.339133 0.000000
vt 12.891517 -0.951760 0.000000
vt 12.891517 -0.886122 0.000000
vt 12.891517 -0.820483 0.000000
vt 12.891517 -0.754845 0.000000
vt 12.891517 -0.689206 0.000000
vt 12.891517 -0.623567 0.000000
vt 12.891517 -0.557929 0.000000
vt 12.891517 -0.492290 0.000000
vt 12.891517 -0.426651 0.000000
vt 12.891517 -0.361013 0.000000
vt 12.891517 -0.295374 0.000000
vt 12.891517 -0.229735 0.000000
vt 12.891517 -0.164097 0.000000
vt 12.891517 -0.098458 0.000000
vt 12.891517 -0.032819 0.000000
vt 12.891517 0.032819 0.000000
vt 12.891517 0.098458 0.000000
vt 12.891517 0.164097 0.000000
vt 12.891517 0.229735 0.000000
vt 12.891517 0.295374 0.000000
vt 12.891517 0.361013 0.000000
vt 12.891517 0.426651 0.000000
vt 12.891517 0.492290 0.000000
vt 12.891517 0.557929 0.000000
vt 12.891517 0.623567 0.000000
vt 12.891517 0.689206 0.000000
vt 12.891517 0.754845 0.000000
vt 12.891517 0.820483 0.000000
vt 12.891517 0.886122 0.000000
vt 12.891517 0.951760 0.000000
vt 11.663753 -1.017399 0.000000
vt 11.663753 1.148676 0.000000
vt 11.663753 -0.754845 0.000000
vt 11.663753 -0.623567 0.000000
vt 11.663753 -0.426651 0.000000
vt 11.663753 -0.229735 0.000000
vt 11.663753 -0.032819 0.000000
vt 11.663753 0.164097 0.000000
vt 11.663753 0.361013 0.000000
vt 11.663753 0.492290 0.000000
vt 11.663753 0.689206 0.000000
vt 11.663753 0.886122 0.000000
vt 11.663753 -0.557929 0.000000
vt 11.663753 -0.492290 0.000000
vt 11.663753 -0.689206 0.000000
vt 11.663753 -0.820483 0.000000
vt 11.663753 0.951760 0.000000
vt 11.663753 0.754845 0.000000
vt 11.663753 0.820483 0.000000
vt 11.663753 0.557929 0.000000
vt 11.663753 0.623567 0.000000
vt 11.663753 0.426651 0.000000
vt 11.663753 0.229735 0.000000
vt 11.663753 0.295374 0.000000
vt 11.663753 0.032819 0.000000
vt 11.663753 0.098458 0.000000
vt 11.663753 -0.164097 0.000000
vt 11.663753 -0.098458 0.000000
vt 11.663753 -0.361013 0.000000
vt 11.663753 -0.295374 0.000000
vt 11.663753 -0.951760 0.000000
vt 10.443771 -0.878663 0.000000
vt 11.663753 1.214315 0.000000
vt 10.443771 -0.878663 0.000000
vt 11.663753 1.017399 0.000000
vt 10.443771 -1.063645 0.000000
vt 11.663753 -0.886122 0.000000
vt 11.663753 -0.886122 0.000000
vt 11.663753 1.017399 0.000000
vt 11.663753 1.083038 0.000000
vt -0.000000 -3.093521 0.000000
vt -0.538600 -2.984184 0.000000
vt -0.971210 -2.570962 0.000000
vt -1.083544 -1.784756 0.000000
vt -0.778349 -1.162788 0.000000
vt -0.274462 -0.922305 0.000000
vt 0.274462 -0.922305 0.000000
vt 0.778349 -1.162788 0.000000
vt 1.083544 -1.784756 0.000000
vt 0.971210 -2.570962 0.000000
vt 0.538600 -2.984184 0.000000
vt 1.994911 -3.989823 0.000000
vt -1.994911 3.989823 0.000000
vt 0.664970 3.989823 0.000000
vt -0.664970 3.989823 0.000000
vt 1.329941 3.989823 0.000000
vt -0.000000 3.989823 0.000000
vt -1.329941 3.989823 0.000000
vt -1.329941 -3.324852 0.000000
vt -0.664970 -3.324852 0.000000
vt -0.000000 -3.324852 0.000000
vt 0.664970 -3.324852 0.000000
vt 1.329941 -3.324852 0.000000
vt 1.329941 -3.247742 0.000000
vt 0.664970 -3.170631 0.000000
vt -1.329941 -2.659882 0.000000
vt -1.329941 -1.994911 0.000000
vt -1.329941 -1.329941 0.000000
vt 1.329941 -0.664970 0.000000
vt 0.664970 -0.664970 0.000000
vt -0.000000 -0.664970 0.000000
vt -0.664970 -0.664970 0.000000
vt -1.329941 -0.664970 0.000000
vt 1.329941 -1.329941 0.000000
vt 1.329941 -1.994911 0.000000
vt 1.329941 -2.659882 0.000000
vt -1.329941 3.324852 0.000000
vt -0.664970 3.324852 0.000000
vt -0.000000 3.324852 0.000000
vt 0.664970 3.324852 0.000000
vt 1.329941 3.324852 0.000000
vt 1.329941 1.994911 0.000000
vt 0.664970 1.994911 0.000000
vt -0.000000 1.994911 0.000000
vt -0.664970 1.994911 0.000000
vt -1.329941 1.994911 0.000000
vt -1.329941 1.329941 0.000000
vt -0.664970 1.329941 0.000000
vt -0.000000 1.329941 0.000000
vt 0.664970 1.329941 0.000000
vt 1.329941 1.329941 0.000000
vt -1.329941 0.664970 0.000000
vt -0.664970 0.664970 0.000000
vt -0.000000 0.664970 0.000000
vt 0.664970 0.664970 0.000000
vt 1.329941 0.664970 0.000000
vt -1.329941 2.659882 0.000000
vt -0.664970 2.659882 0.000000
vt -0.000000 2.659882 0.000000
vt 0.664970 2.659882 0.000000
vt 1.329941 2.659882 0.000000
vt -1.329941 0.000000 0.000000
vt -0.664970 0.000000 0.000000
vt -0.000000 0.000000 0.000000
vt 0.664970 0.000000 0.000000
vt 1.329941 0.000000 0.000000
vt -1.994911 -3.989823 0.000000
vt -1.329941 4.654793 0.000000
vt -0.664970 -3.989823 0.000000
vt -0.664970 4.654793 0.000000
vt -0.000000 -3.989823 0.000000
vt -0.000000 4.654793 0.000000
vt 0.664970 -3.989823 0.000000
vt 0.664970 4.654793 0.000000
vt 1.329941 -3.989823 0.000000
vt -1.994911 -3.989823 0.000000
vt -1.994911 -3.989823 0.000000
vt -1.994911 -3.989823 0.000000
vt -1.329941 4.654793 0.000000
vt 1.994911 3.989823 0.000000
vt 1.994911 3.989823 0.000000
vt 1.994911 3.989823 0.000000
vt 1.994911 3.989823 0.000000
vt 1.994911 3.989823 0.000000
vt 1.329941 -3.989823 0.000000
vt -1.994911 -3.989823 0.000000
vt 1.994911 3.989823 0.000000
vn -1.945588 -1.632878 0.000000
vn -1.636732 -1.632878 -1.051864
vn -0.808226 -1.632878 -1.769769
vn 0.276886 -1.632878 -1.925784
vn 1.274089 -1.632878 -1.470377
vn 1.866778 -1.632878 -0.548135
vn 1.866778 -1.632878 0.548135
vn 1.274089 -1.632878 1.470377
vn 0.276886 -1.632878 1.925784
vn -0.808226 -1.632878 1.769769
vn -1.636732 -1.632878 1.051864
vn 0.000000 -0.318120 -2.520000
vn -2.182384 -0.318120 1.260000
vn 2.182384 -0.318120 1.260000
vn -0.507272 -0.318120 -2.468415
vn -0.993777 -0.318120 -2.315774
vn -1.439596 -0.318120 -2.068324
vn -1.826478 -0.318120 -1.736197
vn -2.138583 -0.318120 -1.332989
vn -2.363135 -0.318120 -0.875209
vn -2.490940 -0.318120 -0.381598
vn -2.516766 -0.318120 0.127636
vn -2.439554 -0.318120 0.631644
vn -2.262467 -0.318120 1.109793
vn -1.992755 -0.318120 1.542507
vn -1.641459 -0.318120 1.912070
vn -1.222961 -0.318120 2.203353
vn -0.754395 -0.318120 2.404431
vn -0.254944 -0.318120 2.507071
vn 0.254944 -0.318120 2.507071
vn 0.754395 -0.318120 2.404431
vn 1.222961 -0.318120 2.203353
vn 1.641459 -0.318120 1.912070
vn 1.992755 -0.318120 1.542507
vn 2.262467 -0.318120 1.109793
vn 2.439554 -0.318120 0.631644
vn 2.516766 -0.318120 0.127636
vn 2.490940 -0.318120 -0.381598
vn 2.363135 -0.318120 -0.875209
vn 2.138583 -0.318120 -1.332989
vn 1.826478 -0.318120 -1.736197
vn 1.439596 -0.318120 -2.068324
vn 0.993777 -0.318120 -2.315774
vn 0.507272 -0.318120 -2.468415
vn 0.000000 -1.019018 -2.326629
vn -0.917520 -1.019018 -2.138074
vn -1.686324 -1.019018 -1.602970
vn -2.181801 -1.019018 -0.808050
vn -2.252356 -1.019018 0.583175
vn -1.515502 -1.019018 1.765349
vn -0.235381 -1.019018 2.314692
vn 1.129118 -1.019018 2.034280
vn 2.088858 -1.019018 1.024634
vn 2.323643 -1.019018 0.117842
vn 1.974480 -1.019018 -1.230703
vn 0.917520 -1.019018 -2.138074
vn -2.299799 -1.019018 -0.352316
vn -2.323643 -1.019018 0.117842
vn -1.974480 -1.019018 -1.230703
vn -1.329129 -1.019018 -1.909612
vn 0.468347 -1.019018 -2.279003
vn 1.686324 -1.019018 -1.602970
vn 1.329129 -1.019018 -1.909612
vn 2.299799 -1.019018 -0.352316
vn 2.181801 -1.019018 -0.808050
vn 2.252356 -1.019018 0.583175
vn 1.515502 -1.019018 1.765349
vn 1.839842 -1.019018 1.424143
vn 0.235381 -1.019018 2.314692
vn 0.696507 -1.019018 2.219928
vn -1.129118 -1.019018 2.034280
vn -0.696507 -1.019018 2.219928
vn -2.088858 -1.019018 1.024634
vn -1.839842 -1.019018 1.424143
vn -0.468347 -1.019018 -2.279003
vn -0.808226 -1.632878 -1.769769
vn -1.329129 -1.019018 -1.909612
vn -0.808226 -1.632878 -1.769769
vn 0.000000 -1.019018 -2.326629
vn 0.276886 -1.632878 -1.925784
vn -0.917520 -1.019018 -2.138074
vn -0.917520 -1.019018 -2.138074
vn 0.000000 -1.019018 -2.326629
vn -0.468347 -1.019018 -2.279003
vn -1.933259 -1.647456 0.000000
vn -1.626361 -1.647456 1.045199
vn -0.803105 -1.647456 1.758554
vn 0.275131 -1.647456 1.913581
vn 1.266015 -1.647456 1.461060
vn 1.854948 -1.647456 0.544662
vn 1.854948 -1.647456 -0.544662
vn 1.266015 -1.647456 -1.461060
vn 0.275131 -1.647456 -1.913581
vn -0.803105 -1.647456 -1.758554
vn -1.626361 -1.647456 -1.045199
vn 0.000000 0.000000 -2.540000
vn 0.000000 0.000000 2.540000
vn -2.199704 0.000000 -1.270000
vn -2.199704 0.000000 1.270000
vn -1.270000 0.000000 -2.199704
vn -2.540000 0.000000 0.000000
vn -1.270000 0.000000 2.199704
vn -1.099852 -0.635000 2.199704
vn -1.905000 -1.099852 1.270000
vn -2.199704 -1.270000 0.000000
vn -1.905000 -1.099852 -1.270000
vn -1.099852 -0.635000 -2.199704
vn -1.059294 -0.700569 -2.199704
vn -1.757740 -1.322516 -1.270000
vn -0.635000 -1.099852 2.199704
vn 0.000000 -1.270000 2.199704
vn 0.635000 -1.099852 2.199704
vn 1.099852 -0.635000 -2.199704
vn 1.905000 -1.099852 -1.270000
vn 2.199704 -1.270000 0.000000
vn 1.905000 -1.099852 1.270000
vn 1.099852 -0.635000 2.199704
vn 0.635000 -1.099852 -2.199704
vn 0.000000 -1.270000 -2.199704
vn -0.635000 -1.099852 -2.199704
vn -1.099852 0.635000 2.199704
vn -1.905000 1.099852 1.270000
vn -2.199704 1.270000 0.000000
vn -1.905000 1.099852 -1.270000
vn -1.099852 0.635000 -2.199704
vn 0.000000 1.270000 -2.199704
vn 0.000000 2.199704 -1.270000
vn 0.000000 2.540000 0.000000
vn 0.000000 2.199704 1.270000
vn 0.000000 1.270000 2.199704
vn 0.635000 1.099852 2.199704
vn 1.099852 1.905000 1.270000
vn 1.270000 2.199704 0.000000
vn 1.099852 1.905000 -1.270000
vn 0.635000 1.099852 -2.199704
vn 1.099852 0.635000 2.199704
vn 1.905000 1.099852 1.270000
vn 2.199704 1.270000 0.000000
vn 1.905000 1.099852 -1.270000
vn 1.099852 0.635000 -2.199704
vn -0.635000 1.099852 2.199704
vn -1.099852 1.905000 1.270000
vn -1.270000 2.199704 0.000000
vn -1.099852 1.905000 -1.270000
vn -0.635000 1.099852 -2.199704
vn 1.270000 0.000000 2.199704
vn 2.199704 0.000000 1.270000
vn 2.540000 0.000000 0.000000
vn 2.199704 0.000000 -1.270000
vn 1.270000 0.000000 -2.199704
vn 0.000000 0.000000 2.540000
vn -1.099852 -0.635000 2.199704
vn -2.199704 0.000000 1.270000
vn -1.905000 -1.099852 1.270000
vn -2.540000 0.000000 0.000000
vn -2.199704 -1.270000 0.000000
vn -2.199704 0.000000 -1.270000
vn -1.905000 -1.099852 -1.270000
vn -1.270000 0.000000 -2.199704
vn 0.000000 0.000000 2.540000
vn 0.000000 0.000000 2.540000
vn 0.000000 0.000000 2.540000
vn -1.099852 -0.635000 2.199704
vn 0.000000 0.000000 -2.540000
vn 0.000000 0.000000 -2.540000
vn 0.000000 0.000000 -2.540000
vn 0.000000 0.000000 -2.540000
vn 0.000000 0.000000 -2.540000
vn -1.270000 0.000000 -2.199704
vn 0.000000 0.000000 2.540000
vn 0.000000 0.000000 -2.540000
usemtl 213,28,24
f 12/2/2 27/57/57 6/1/1
f 6/1/1 27/57/57 26/58/58
f 6/1/1 26/58/58 32/49/49
f 32/49/49 26/58/58 45/22/22
f 24/76/76 37/47/47 12/2/2
f 12/2/2 37/47/47 35/59/59
f 12/2/2 35/59/59 33/48/48
f 33/48/48 35/59/59 45/19/19
f 60/4/4 41/46/46 24/3/3
f 24/3/3 41/46/46 39/77/77
f 24/78/78 39/60/60 37/47/47
f 37/47/47 39/60/60 45/17/17
f 83/5/5 57/61/61 60/4/4
f 60/4/4 57/61/61 46/79/79
f 60/80/80 46/45/45 43/75/75
f 43/75/75 46/45/45 45/12/12
f 88/6/6 65/62/62 83/5/5
f 83/5/5 65/62/62 63/63/63
f 83/5/5 63/63/63 59/56/56
f 59/56/56 63/63/63 45/42/42
f 89/7/7 75/64/64 88/6/6
f 88/6/6 75/64/64 69/65/65
f 88/6/6 69/65/65 67/55/55
f 67/55/55 69/65/65 45/39/39
f 84/8/8 68/53/53 89/7/7
f 89/7/7 68/53/53 70/66/66
f 89/7/7 70/66/66 76/54/54
f 76/54/54 70/66/66 45/36/36
f 61/9/9 64/67/67 84/8/8
f 84/8/8 64/67/67 66/68/68
f 84/8/8 66/68/68 68/53/53
f 68/53/53 66/68/68 45/14/14
f 25/10/10 56/69/69 61/9/9
f 61/9/9 56/69/69 58/70/70
f 61/9/9 58/70/70 62/52/52
f 62/52/52 58/70/70 45/31/31
f 13/11/11 40/71/71 25/10/10
f 25/10/10 40/71/71 42/72/72
f 25/10/10 42/72/72 44/51/51
f 44/51/51 42/72/72 45/28/28
f 6/1/1 34/73/73 13/11/11
f 13/11/11 34/73/73 36/74/74
f 13/11/11 36/74/74 38/50/50
f 38/50/50 36/74/74 45/25/25
f 43/75/75 45/15/15 41/81/81
f 41/82/82 45/16/16 39/60/60
f 37/47/47 45/18/18 35/59/59
f 33/48/48 45/20/20 27/57/57
f 27/57/57 45/21/21 26/58/58
f 32/49/49 45/23/23 34/73/73
f 38/50/50 45/26/26 40/71/71
f 40/71/71 45/27/27 42/72/72
f 44/51/51 45/29/29 56/69/69
f 56/69/69 45/30/30 58/70/70
f 62/52/52 45/32/32 64/67/67
f 64/67/67 45/33/33 66/68/68
f 68/53/53 45/35/35 70/66/66
f 76/54/54 45/37/37 75/64/64
f 75/64/64 45/38/38 69/65/65
f 67/55/55 45/40/40 65/62/62
f 65/62/62 45/41/41 63/63/63
f 59/56/56 45/43/43 57/61/61
f 57/61/61 45/44/44 46/83/83
f 41/46/46 60/4/4 43/84/84
f 27/57/57 12/2/2 33/48/48
f 34/73/73 6/1/1 32/49/49
f 40/71/71 13/11/11 38/50/50
f 34/73/73 45/13/13 36/74/74
f 56/69/69 25/10/10 44/51/51
f 64/67/67 61/9/9 62/52/52
f 75/64/64 89/7/7 76/54/54
f 65/62/62 88/6/6 67/55/55
f 57/61/61 83/5/5 59/56/56
f 12/95/95 6/85/85 2/105/105
f 2/105/105 6/85/85 13/86/86
f 2/105/105 13/86/86 8/104/104
f 8/104/104 13/86/86 25/87/87
f 8/104/104 25/87/87 18/103/103
f 18/103/103 25/87/87 29/110/110
f 18/103/103 29/110/110 50/151/151
f 29/110/110 25/87/87 48/111/111
f 48/111/111 25/87/87 61/88/88
f 48/111/111 61/88/88 72/112/112
f 72/112/112 61/88/88 84/89/89
f 72/112/112 84/89/89 78/117/117
f 78/117/117 84/89/89 91/116/116
f 78/117/117 91/116/116 86/146/146
f 86/146/146 91/116/116 96/147/147
f 86/146/146 96/147/147 80/136/136
f 80/136/136 96/147/147 93/137/137
f 80/136/136 93/137/137 74/131/131
f 74/131/131 93/137/137 82/132/132
f 74/131/131 82/132/132 52/130/130
f 52/130/130 82/132/132 54/129/129
f 52/130/130 54/129/129 31/141/141
f 31/141/141 54/129/129 22/142/142
f 31/141/141 22/142/142 20/121/121
f 20/121/121 22/142/142 10/122/122
f 20/121/121 10/122/122 15/102/102
f 15/102/102 10/122/122 4/99/99
f 15/102/102 4/99/99 18/152/152
f 18/103/103 4/153/153 8/104/104
f 84/89/89 89/90/90 91/116/116
f 91/116/116 89/90/90 94/115/115
f 91/116/116 94/115/115 96/147/147
f 96/147/147 94/115/115 98/148/148
f 96/147/147 98/148/148 93/137/137
f 93/137/137 98/148/148 97/138/138
f 93/137/137 97/138/138 82/132/132
f 82/132/132 97/138/138 87/133/133
f 82/132/132 87/133/133 54/129/129
f 54/129/129 87/133/133 55/128/128
f 54/129/129 55/128/128 22/142/142
f 22/142/142 55/128/128 16/143/143
f 22/142/142 16/143/143 10/122/122
f 10/122/122 16/143/143 5/123/123
f 10/122/122 5/123/123 4/99/99
f 4/99/99 5/123/123 1/101/101
f 4/99/99 1/101/101 8/154/154
f 8/104/104 1/155/155 2/105/105
f 89/90/90 88/91/91 94/115/115
f 94/115/115 88/91/91 90/114/114
f 94/115/115 90/114/114 98/148/148
f 98/148/148 90/114/114 95/149/149
f 98/148/148 95/149/149 97/138/138
f 97/138/138 95/149/149 92/139/139
f 97/138/138 92/139/139 87/133/133
f 87/133/133 92/139/139 81/134/134
f 87/133/133 81/134/134 55/128/128
f 55/128/128 81/134/134 53/127/127
f 55/128/128 53/127/127 16/143/143
f 16/143/143 53/127/127 21/144/144
f 16/143/143 21/144/144 5/123/123
f 5/123/123 21/144/144 9/124/124
f 5/123/123 9/124/124 1/101/101
f 1/101/101 9/124/124 3/98/98
f 1/101/101 3/98/98 2/156/156
f 2/105/105 3/157/157 7/106/106
f 2/105/105 7/106/106 11/109/109
f 11/109/109 7/106/106 23/108/108
f 11/109/109 23/108/108 24/94/94
f 24/94/94 23/108/108 28/120/120
f 24/94/94 28/120/120 47/119/119
f 47/119/119 28/120/120 49/96/96
f 88/91/91 83/92/92 90/114/114
f 90/114/114 83/92/92 77/113/113
f 90/114/114 77/113/113 95/149/149
f 95/149/149 77/113/113 85/150/150
f 95/149/149 85/150/150 92/139/139
f 92/139/139 85/150/150 79/140/140
f 92/139/139 79/140/140 81/134/134
f 81/134/134 79/140/140 73/135/135
f 81/134/134 73/135/135 53/127/127
f 53/127/127 73/135/135 51/126/126
f 53/127/127 51/126/126 21/144/144
f 21/144/144 51/126/126 30/145/145
f 21/144/144 30/145/145 9/124/124
f 9/124/124 30/145/145 19/125/125
f 9/124/124 19/125/125 3/98/98
f 3/98/98 19/125/125 14/100/100
f 3/98/98 14/100/100 7/158/158
f 7/106/106 14/159/159 17/107/107
f 7/106/106 17/107/107 23/108/108
f 23/108/108 17/107/107 49/96/96
f 23/108/108 49/96/96 28/120/120
f 77/113/113 83/92/92 71/118/118
f 71/118/118 83/92/92 60/93/93
f 71/118/118 60/93/93 47/119/119
f 47/119/119 60/93/93 24/94/94
f 24/94/94 12/95/95 11/109/109
f 11/109/109 12/95/95 2/105/105
f 20/121/121 50/97/97 31/141/141
f 31/141/141 50/97/97 52/130/130
f 52/130/130 50/97/97 74/131/131
f 80/136/136 50/97/97 86/146/146
f 86/146/146 50/160/160 78/117/117
f 78/117/117 50/161/161 72/112/112
f 48/111/111 50/162/162 29/110/110
f 18/163/163 50/97/97 15/102/102
f 47/119/119 49/96/96 71/118/118
f 77/113/113 49/96/96 85/150/150
f 85/150/150 49/164/164 79/140/140
f 79/140/140 49/165/165 73/135/135
f 51/126/126 49/166/166 30/145/145
f 30/145/145 49/167/167 19/125/125
f 19/125/125 49/168/168 14/100/100
f 14/169/169 49/96/96 17/107/107
f 15/102/102 50/97/97 20/121/121
f 72/112/112 50/170/170 48/111/111
f 71/118/118 49/96/96 77/113/113
f 74/131/131 50/97/97 80/136/136
f 73/135/135 49/171/171 51/126/126

# 98 vertices
# 171 texture params
# 171 normals
# 192 facets

# 1 groups
